<?xml version="1.0" encoding="utf-8"?><!-- Uploaded to: SVG Repo, www.svgrepo.com, Generator: SVG Repo Mixer Tools -->
<svg fill="#000000" width="800px" height="800px" viewBox="0 0 1024 1024" xmlns="http://www.w3.org/2000/svg"><path d="M235.52 143.36h757.76c16.966 0 30.72 13.754 30.72 30.72s-13.754 30.72-30.72 30.72H235.52c-16.966 0-30.72-13.754-30.72-30.72s13.754-30.72 30.72-30.72zm0 225.28h757.76c16.966 0 30.72 13.754 30.72 30.72s-13.754 30.72-30.72 30.72H235.52c-16.966 0-30.72-13.754-30.72-30.72s13.754-30.72 30.72-30.72zm0 235.52h757.76c16.966 0 30.72 13.754 30.72 30.72s-13.754 30.72-30.72 30.72H235.52c-16.966 0-30.72-13.754-30.72-30.72s13.754-30.72 30.72-30.72zm0 225.28h757.76c16.966 0 30.72 13.754 30.72 30.72s-13.754 30.72-30.72 30.72H235.52c-16.966 0-30.72-13.754-30.72-30.72s13.754-30.72 30.72-30.72zM61.44 235.52C27.508 235.52 0 208.012 0 174.08s27.508-61.44 61.44-61.44 61.44 27.508 61.44 61.44-27.508 61.44-61.44 61.44zm0 225.28C27.508 460.8 0 433.292 0 399.36s27.508-61.44 61.44-61.44 61.44 27.508 61.44 61.44-27.508 61.44-61.44 61.44zm0 235.52C27.508 696.32 0 668.812 0 634.88s27.508-61.44 61.44-61.44 61.44 27.508 61.44 61.44-27.508 61.44-61.44 61.44zm0 225.28C27.508 921.6 0 894.092 0 860.16s27.508-61.44 61.44-61.44 61.44 27.508 61.44 61.44-27.508 61.44-61.44 61.44z"/></svg>