<?xml version="1.0" encoding="UTF-8" standalone="no"?>
<!-- Uploaded to: SVG Repo, www.svgrepo.com, Generator: SVG Repo Mixer Tools -->

<svg
   width="950.48627"
   height="740.82123"
   viewBox="0 -99 608.31121 474.12559"
   version="1.1"
   preserveAspectRatio="xMidYMid"
   id="svg47"
   sodipodi:docname="node-express.svg"
   xml:space="preserve"
   inkscape:version="1.3.1 (91b66b0, 2023-11-16)"
   xmlns:inkscape="http://www.inkscape.org/namespaces/inkscape"
   xmlns:sodipodi="http://sodipodi.sourceforge.net/DTD/sodipodi-0.dtd"
   xmlns:xlink="http://www.w3.org/1999/xlink"
   xmlns="http://www.w3.org/2000/svg"
   xmlns:svg="http://www.w3.org/2000/svg"><sodipodi:namedview
     id="namedview47"
     pagecolor="#505050"
     bordercolor="#ffffff"
     borderopacity="1"
     inkscape:showpageshadow="0"
     inkscape:pageopacity="0"
     inkscape:pagecheckerboard="1"
     inkscape:deskcolor="#505050"
     inkscape:zoom="0.295"
     inkscape:cx="401.69492"
     inkscape:cy="228.81356"
     inkscape:window-width="1888"
     inkscape:window-height="782"
     inkscape:window-x="20"
     inkscape:window-y="72"
     inkscape:window-maximized="0"
     inkscape:current-layer="svg47" /><defs
     id="defs30"><linearGradient
       x1="79.823226"
       y1="21.345525"
       x2="32.862125"
       y2="105.42175"
       id="linearGradient-1"
       gradientTransform="scale(0.93681242,1.0674496)"
       gradientUnits="userSpaceOnUse"><stop
         stop-color="#41873F"
         offset="0%"
         id="stop1" /><stop
         stop-color="#418B3D"
         offset="32.88%"
         id="stop2" /><stop
         stop-color="#419637"
         offset="63.52%"
         id="stop3" /><stop
         stop-color="#3FA92D"
         offset="93.19%"
         id="stop4" /><stop
         stop-color="#3FAE2A"
         offset="100%"
         id="stop5" /></linearGradient><path
       id="path-2"
       d="m 57.903386,1.8492099 c -1.84921,-1.04018056 -4.045147,-1.04018056 -5.894357,0 L 3.351693,29.934086 c -1.8492099,1.04018 -2.88939052,3.004966 -2.88939052,5.085327 V 91.30474 c 0,2.080362 1.15575622,4.045147 2.88939052,5.085328 l 48.657336,28.084872 c 1.84921,1.04018 4.045147,1.04018 5.894357,0 L 106.56072,96.390068 c 1.84921,-1.040181 2.88939,-3.004966 2.88939,-5.085328 V 35.019413 c 0,-2.080361 -1.15575,-4.045147 -2.88939,-5.085327 L 57.903386,1.8492099 Z" /><linearGradient
       x1="51.368568"
       y1="64.593354"
       x2="184.6737"
       y2="-19.865484"
       id="linearGradient-4"
       gradientTransform="scale(0.92601891,1.0798916)"
       gradientUnits="userSpaceOnUse"><stop
         stop-color="#41873F"
         offset="13.76%"
         id="stop6" /><stop
         stop-color="#54A044"
         offset="40.32%"
         id="stop7" /><stop
         stop-color="#66B848"
         offset="71.36%"
         id="stop8" /><stop
         stop-color="#6CC04A"
         offset="90.81%"
         id="stop9" /></linearGradient><linearGradient
       x1="5.4425087"
       y1="1.3971804"
       x2="60.600268"
       y2="1.3971804"
       id="linearGradient-5"
       gradientTransform="scale(1.6329932,0.61237242)"
       gradientUnits="userSpaceOnUse"><stop
         stop-color="#6CC04A"
         offset="9.191646%"
         id="stop10" /><stop
         stop-color="#66B848"
         offset="28.64%"
         id="stop11" /><stop
         stop-color="#54A044"
         offset="59.68%"
         id="stop12" /><stop
         stop-color="#41873F"
         offset="86.24%"
         id="stop13" /></linearGradient><linearGradient
       x1="-1.421301"
       y1="66.989321"
       x2="120.2794"
       y2="66.989321"
       id="linearGradient-6"
       gradientTransform="scale(0.92514088,1.0809165)"
       gradientUnits="userSpaceOnUse"><stop
         stop-color="#6CC04A"
         offset="9.191646%"
         id="stop14" /><stop
         stop-color="#66B848"
         offset="28.64%"
         id="stop15" /><stop
         stop-color="#54A044"
         offset="59.68%"
         id="stop16" /><stop
         stop-color="#41873F"
         offset="86.24%"
         id="stop17" /></linearGradient><linearGradient
       x1="118.0377"
       y1="68.36254"
       x2="169.63257"
       y2="68.36254"
       id="linearGradient-7"
       gradientTransform="scale(0.65464693,1.527541)"
       gradientUnits="userSpaceOnUse"><stop
         stop-color="#6CC04A"
         offset="9.191646%"
         id="stop18" /><stop
         stop-color="#66B848"
         offset="28.64%"
         id="stop19" /><stop
         stop-color="#54A044"
         offset="59.68%"
         id="stop20" /><stop
         stop-color="#41873F"
         offset="86.24%"
         id="stop21" /></linearGradient><linearGradient
       x1="-1.0386474"
       y1="150.75189"
       x2="87.896974"
       y2="150.75189"
       id="linearGradient-8"
       gradientTransform="scale(1.2659753,0.7899048)"
       gradientUnits="userSpaceOnUse"><stop
         stop-color="#6CC04A"
         offset="9.191646%"
         id="stop22" /><stop
         stop-color="#66B848"
         offset="28.64%"
         id="stop23" /><stop
         stop-color="#54A044"
         offset="59.68%"
         id="stop24" /><stop
         stop-color="#41873F"
         offset="86.24%"
         id="stop25" /></linearGradient><linearGradient
       x1="100.85383"
       y1="37.18237"
       x2="46.00401"
       y2="216.51357"
       id="linearGradient-9"
       gradientTransform="scale(1.2659753,0.7899048)"
       gradientUnits="userSpaceOnUse"><stop
         stop-color="#41873F"
         offset="0%"
         id="stop26" /><stop
         stop-color="#418B3D"
         offset="32.88%"
         id="stop27" /><stop
         stop-color="#419637"
         offset="63.52%"
         id="stop28" /><stop
         stop-color="#3FA92D"
         offset="93.19%"
         id="stop29" /><stop
         stop-color="#3FAE2A"
         offset="100%"
         id="stop30" /></linearGradient></defs><g
     fill="none"
     id="g47"
     transform="translate(-0.23115124,-99)"><path
       d="m 253.11061,313.09436 c -1.73364,0 -3.35169,-0.46231 -4.85418,-1.27134 l -15.37155,-9.13047 c -2.31152,-1.27133 -1.15576,-1.73363 -0.46231,-1.96479 3.12054,-1.04017 3.69842,-1.27133 6.93454,-3.12054 0.34673,-0.23115 0.80903,-0.11557 1.15576,0.11558 l 11.78871,7.05011 c 0.4623,0.23115 1.04018,0.23115 1.38691,0 l 46.11467,-26.69797 c 0.4623,-0.23115 0.69345,-0.69345 0.69345,-1.27133 v -53.28036 c 0,-0.57788 -0.23115,-1.04018 -0.69345,-1.27133 l -46.11467,-26.58239 c -0.46231,-0.23116 -1.04018,-0.23116 -1.38691,0 l -46.11467,26.58239 c -0.46231,0.23115 -0.69346,0.80903 -0.69346,1.27133 v 53.28036 c 0,0.4623 0.23115,1.04018 0.69346,1.27133 l 12.59774,7.28127 c 6.81896,3.46727 11.09526,-0.57788 11.09526,-4.62303 v -52.58691 c 0,-0.69345 0.57788,-1.3869 1.38691,-1.3869 h 5.89435 c 0.69346,0 1.38691,0.57788 1.38691,1.3869 v 52.58691 c 0,9.13048 -4.96975,14.44695 -13.63792,14.44695 -2.65824,0 -4.7386,0 -10.63296,-2.88938 l -12.13544,-6.93454 c -3.00497,-1.73364 -4.85418,-4.96975 -4.85418,-8.43702 v -53.28036 c 0,-3.46727 1.84921,-6.70339 4.85418,-8.43702 l 46.11467,-26.69797 c 2.88939,-1.61806 6.81896,-1.61806 9.70836,0 l 46.11467,26.69797 c 3.00496,1.73363 4.85417,4.96975 4.85417,8.43702 v 53.28036 c 0,3.46727 -1.84921,6.70338 -4.85417,8.43702 l -46.11467,26.69797 c -1.50249,0.69345 -3.23612,1.04018 -4.85418,1.04018 z m 14.2158,-36.63748 c -20.22573,0 -24.38646,-9.24605 -24.38646,-17.10519 0,-0.69345 0.57788,-1.3869 1.38691,-1.3869 h 6.00993 c 0.69346,0 1.27134,0.4623 1.27134,1.15575 0.9246,6.12551 3.58284,9.13048 15.83386,9.13048 9.70835,0 13.86907,-2.19594 13.86907,-7.39684 0,-3.00497 -1.15576,-5.20091 -16.29616,-6.70339 -12.59774,-1.27133 -20.45689,-4.04515 -20.45689,-14.10023 0,-9.36162 7.85915,-14.90925 21.03477,-14.90925 14.79368,0 22.07494,5.08533 22.99955,16.18059 0,0.34672 -0.11558,0.69345 -0.34673,1.04018 -0.23115,0.23115 -0.57788,0.4623 -0.92461,0.4623 h -6.00993 c -0.57788,0 -1.15576,-0.4623 -1.27133,-1.04018 -1.38691,-6.35666 -4.96975,-8.43702 -14.44695,-8.43702 -10.63296,0 -11.90429,3.69842 -11.90429,6.47223 0,3.3517 1.50248,4.39188 15.83386,6.24109 14.2158,1.84921 20.91918,4.50745 20.91918,14.44695 -0.11557,10.17065 -8.43701,15.94943 -23.11512,15.94943 z"
       fill="#539e43"
       id="path30" /><path
       d="m 110.02799,104.71151 c 0,-2.08036 -1.15575,-4.04514 -3.00496,-5.085325 L 58.018962,71.425734 c -0.80903,-0.462303 -1.733635,-0.693454 -2.65824,-0.80903 H 54.89842 c -0.924605,0 -1.84921,0.346727 -2.658239,0.80903 L 3.2361174,99.626185 c -1.84921,1.040185 -3.00496616,3.004965 -3.00496616,5.085325 l 0.11557562,75.81761 c 0,1.04018 0.57787811,2.08036 1.50248304,2.54266 0.924605,0.57788 2.0803612,0.57788 2.8893905,0 L 33.863657,166.42889 c 1.84921,-1.04018 3.004966,-3.00496 3.004966,-5.08532 v -35.48172 c 0,-2.08036 1.155756,-4.04515 3.004966,-5.08533 l 12.366592,-7.16569 c 0.924605,-0.57787 1.964785,-0.80902 3.004966,-0.80902 1.04018,0 2.080361,0.23115 2.88939,0.80902 l 12.366592,7.16569 c 1.84921,1.04018 3.004966,3.00497 3.004966,5.08533 v 35.48172 c 0,2.08036 1.155756,4.04514 3.004966,5.08532 l 29.125059,16.64289 c 0.9246,0.57788 2.08036,0.57788 3.00496,0 0.92461,-0.4623 1.50249,-1.50248 1.50249,-2.54266 z"
       fill="#333333"
       id="path31" /><path
       d="m 345.57111,0.34672686 c -0.92461,-0.46230248 -2.08037,-0.46230248 -2.88939,0 -0.92461,0.57787811 -1.50249,1.50248304 -1.50249,2.54266364 V 78.013544 c 0,0.693454 -0.34672,1.386908 -1.04018,1.84921 -0.69345,0.346727 -1.38691,0.346727 -2.08036,0 l -12.25101,-7.050113 c -1.84922,-1.040181 -4.04515,-1.040181 -5.89436,0 l -49.00407,28.316029 c -1.84921,1.04018 -3.00496,3.00496 -3.00496,5.08532 v 56.51648 c 0,2.08036 1.15575,4.04515 3.00496,5.08533 l 49.00407,28.31603 c 1.84921,1.04018 4.04514,1.04018 5.89436,0 l 49.00406,-28.31603 c 1.84921,-1.04018 3.00496,-3.00497 3.00496,-5.08533 V 21.843792 c 0,-2.195937 -1.15575,-4.160722 -3.00496,-5.200903 z M 341.06366,144.1228 c 0,0.57788 -0.23115,1.04018 -0.69346,1.27133 l -16.75846,9.70835 c -0.4623,0.23115 -1.04018,0.23115 -1.50248,0 l -16.75847,-9.70835 c -0.4623,-0.23115 -0.69345,-0.80903 -0.69345,-1.27133 v -19.4167 c 0,-0.57788 0.23115,-1.04019 0.69345,-1.27134 l 16.75847,-9.70835 c 0.4623,-0.23115 1.04018,-0.23115 1.50248,0 l 16.75846,9.70835 c 0.46231,0.23115 0.69346,0.80903 0.69346,1.27134 z"
       fill="#333333"
       id="path32" /><g
       transform="translate(401.0474,70.501129)"
       id="g34"><path
         d="m 107.6009,53.742664 c 1.84921,-1.040181 2.88939,-3.004966 2.88939,-5.085328 V 34.903838 c 0,-2.080362 -1.15575,-4.045147 -2.88939,-5.085328 L 58.943567,1.6180587 c -1.84921,-1.0401806 -4.045147,-1.0401806 -5.894357,0 L 4.0451467,29.934086 c -1.8492099,1.04018 -3.0049661,3.004966 -3.0049661,5.085327 v 56.516479 c 0,2.080361 1.1557562,4.045146 3.0049661,5.085327 L 52.702483,124.35937 c 1.84921,1.04018 4.045147,1.04018 5.778781,0 l 29.471783,-16.41174 c 0.924605,-0.4623 1.502483,-1.50248 1.502483,-2.54266 0,-1.04018 -0.577878,-2.08036 -1.502483,-2.54267 L 38.717833,74.546275 C 37.793228,73.968397 37.21535,73.043792 37.21535,72.003612 v -17.68307 c 0,-1.040181 0.577878,-2.080361 1.502483,-2.542664 L 54.08939,42.994131 c 0.924605,-0.577878 2.080362,-0.577878 3.004967,0 l 15.371557,8.783747 c 0.924605,0.577878 1.502483,1.502483 1.502483,2.542664 v 13.869074 c 0,1.040181 0.577878,2.080361 1.502483,2.542664 0.924605,0.577878 2.080362,0.577878 3.004967,0 z"
         fill="#333333"
         id="path33" /><path
         d="m 55.245147,51.084424 c 0.346727,-0.231151 0.809029,-0.231151 1.155756,0 l 9.361625,5.432055 c 0.346727,0.231151 0.577878,0.577878 0.577878,1.04018 v 10.864108 c 0,0.462303 -0.231151,0.80903 -0.577878,1.040181 l -9.361625,5.432054 c -0.346727,0.231152 -0.809029,0.231152 -1.155756,0 L 45.883521,69.460948 C 45.536795,69.229797 45.305643,68.88307 45.305643,68.420767 V 57.556659 c 0,-0.462302 0.231152,-0.809029 0.577878,-1.04018 z"
         fill="#539e43"
         id="path34" /></g><g
       transform="translate(134.06772,70.501129)"
       id="g46"><mask
         id="mask-3"
         fill="#ffffff"><use
           xlink:href="#path-2"
           id="use34" /></mask><use
         fill="url(#linearGradient-1)"
         xlink:href="#path-2"
         id="use35"
         style="fill:url(#linearGradient-1)" /><g
         mask="url(#mask-3)"
         id="g37"><path
           d="M 51.893454,1.8492099 3.1205418,29.934086 C 1.2713318,30.974266 0,32.939052 0,35.019413 V 91.30474 c 0,1.386908 0.5778781,2.65824 1.5024831,3.69842 L 56.285327,1.1557562 C 54.89842,0.92460497 53.280361,1.0401806 51.893454,1.8492099 Z"
           id="path35" /><path
           d="m 56.632054,125.05282 c 0.462303,-0.11557 0.924605,-0.34672 1.386908,-0.57788 L 106.79187,96.390068 c 1.84921,-1.040181 3.00497,-3.004966 3.00497,-5.085328 V 35.019413 c 0,-1.502483 -0.69345,-3.004966 -1.73364,-4.045147 z"
           id="path36" /><path
           d="M 106.6763,29.934086 57.78781,1.8492099 C 57.325508,1.6180587 56.74763,1.3869074 56.285327,1.2713318 L 1.5024831,95.118736 c 0.4623024,0.577878 1.0401806,1.040181 1.6180587,1.386907 L 52.009029,124.59052 c 1.386908,0.80903 3.004966,1.04018 4.50745,0.57788 L 107.94763,31.089842 c -0.34673,-0.462303 -0.80903,-0.809029 -1.27133,-1.155756 z"
           fill="url(#linearGradient-4)"
           id="path37"
           style="fill:url(#linearGradient-4)" /></g><g
         mask="url(#mask-3)"
         id="g45"><g
           transform="translate(0,-9.24605)"
           id="g44"><path
             d="M 109.79684,100.55079 V 44.265463 c 0,-2.080361 -1.27133,-4.045147 -3.12054,-5.085328 L 57.78781,11.09526 C 57.209932,10.748533 56.632054,10.517382 55.9386,10.401806 l 53.51151,91.420314 c 0.23115,-0.34672 0.34673,-0.80903 0.34673,-1.27133 z"
             fill="none"
             id="path38" /><path
             d="M 3.1205418,39.180135 C 1.2713318,40.220316 0,42.185102 0,44.265463 v 56.285327 c 0,2.08036 1.3869074,4.04515 3.1205418,5.08533 l 48.8884872,28.08487 c 1.155757,0.69346 2.427088,0.92461 3.813996,0.69346 L 3.4672686,39.06456 Z"
             fill="none"
             id="path39" /><path
             fill="url(#linearGradient-5)"
             fill-rule="evenodd"
             d="M 50.390971,0.80902934 49.697517,1.1557562 h 0.924605 z"
             id="path40"
             style="fill:url(#linearGradient-5)" /><path
             d="m 106.79187,105.63612 c 1.38691,-0.80903 2.42709,-2.19594 2.88939,-3.69842 L 56.054176,10.401806 c -1.386907,-0.231151 -2.88939,-0.115576 -4.160722,0.693454 l -48.541761,27.9693 52.355756,95.46546 c 0.693454,-0.11557 1.502483,-0.34672 2.195937,-0.69345 z"
             fill="url(#linearGradient-6)"
             fill-rule="evenodd"
             id="path41"
             style="fill:url(#linearGradient-6)" /><path
             fill="url(#linearGradient-7)"
             fill-rule="evenodd"
             d="m 111.29932,104.71151 -0.34672,-0.57788 v 0.80903 z"
             id="path42"
             style="fill:url(#linearGradient-7)" /><path
             d="m 106.79187,105.63612 -48.772908,28.08487 c -0.693454,0.34673 -1.386908,0.57788 -2.195937,0.69346 l 0.924605,1.73363 54.08939,-31.32099 v -0.69346 l -1.38691,-2.31151 c -0.23115,1.61806 -1.27133,3.00497 -2.65824,3.814 z"
             fill="url(#linearGradient-8)"
             fill-rule="evenodd"
             id="path43"
             style="fill:url(#linearGradient-8)" /><path
             d="m 106.79187,105.63612 -48.772908,28.08487 c -0.693454,0.34673 -1.386908,0.57788 -2.195937,0.69346 l 0.924605,1.73363 54.08939,-31.32099 v -0.69346 l -1.38691,-2.31151 c -0.23115,1.61806 -1.27133,3.00497 -2.65824,3.814 z"
             fill="url(#linearGradient-9)"
             fill-rule="evenodd"
             id="path44"
             style="fill:url(#linearGradient-9)" /></g></g></g></g><path
     d="m 99.643461,342.46956 v -56.98145 h 71.143509 v -3.33225 H 99.643461 v -51.98308 h 75.642049 v -3.33225 H 96.311221 v 118.96128 h 79.640739 v -3.33225 z m 140.454279,-82.30654 -29.4904,38.82069 -28.82395,-38.82069 h -4.33192 l 31.15652,41.31988 -34.15554,44.31891 h 3.99869 l 32.1562,-41.81972 32.32281,41.81972 h 4.16531 L 212.7733,301.4829 244.09644,260.16302 Z m 16.99447,114.96257 v -53.31597 h 0.33322 c 1.99936,7.77528 5.94248,14.02319 11.82948,18.74389 5.887,4.72071 13.38449,7.08103 22.49268,7.08103 5.887,0 11.10747,-1.19404 15.66157,-3.58217 4.5541,-2.38812 8.35837,-5.63703 11.41295,-9.74682 3.05458,-4.1098 5.38713,-8.88597 6.99772,-14.32867 1.6106,-5.4427 2.41588,-11.163 2.41588,-17.16108 0,-6.44238 -0.83305,-12.38483 -2.49918,-17.82753 -1.66614,-5.4427 -4.08199,-10.16334 -7.24764,-14.16206 -3.16566,-3.99872 -6.9977,-7.10878 -11.49626,-9.33029 -4.49856,-2.22151 -9.58019,-3.33225 -15.24504,-3.33225 -4.33194,0 -8.35837,0.63867 -12.0794,1.91604 -3.72103,1.27737 -7.02548,3.08232 -9.91344,5.4149 -2.88796,2.33259 -5.38712,5.08167 -7.49756,8.24732 -2.11043,3.16565 -3.721,6.63671 -4.83176,10.41328 h -0.33322 v -23.99219 h -3.33225 v 114.96257 z m 34.65538,-30.65668 c -10.4411,0 -18.82717,-3.58213 -25.15848,-10.74651 -6.3313,-7.16437 -9.4969,-17.46647 -9.4969,-30.9066 0,-5.55378 0.77751,-10.82978 2.33257,-15.82818 1.55506,-4.9984 3.8043,-9.38582 6.7478,-13.16238 2.9435,-3.77657 6.58117,-6.77557 10.91312,-8.99708 4.33194,-2.22151 9.21919,-3.33224 14.66189,-3.33224 5.55378,0 10.41326,1.11073 14.57859,3.33224 4.16533,2.22151 7.60862,5.24828 10.32997,9.08038 2.72135,3.83211 4.77622,8.21952 6.16466,13.16238 1.38844,4.94286 2.08266,10.1911 2.08266,15.74488 0,4.9984 -0.63868,9.96895 -1.91605,14.91181 -1.27737,4.94286 -3.24893,9.38582 -5.91474,13.329 -2.66581,3.94318 -6.08133,7.16432 -10.24666,9.66352 -4.16534,2.49919 -9.19143,3.74878 -15.07843,3.74878 z m 54.81549,1.3329 v -48.48422 c 0,-4.66517 0.66644,-9.2192 1.99935,-13.66222 1.33291,-4.44302 3.38777,-8.35837 6.16466,-11.74618 2.77689,-3.3878 6.30348,-6.05357 10.57989,-7.99739 4.27641,-1.94383 9.35804,-2.74911 15.24504,-2.41588 v -3.33225 c -5.10948,-0.11108 -9.5802,0.44429 -13.4123,1.66612 -3.83211,1.22183 -7.13656,2.88794 -9.91344,4.99837 -2.77689,2.11044 -4.99837,4.58183 -6.6645,7.41426 -1.66613,2.83242 -2.88795,5.85919 -3.66547,9.08038 h -0.33323 v -21.15978 h -3.33225 v 85.63879 z m 38.15425,-42.15295 h 71.64334 c 0.22215,-5.887 -0.36098,-11.55177 -1.74943,-16.99447 -1.38844,-5.4427 -3.60992,-10.27441 -6.66449,-14.49528 -3.05458,-4.22087 -6.9977,-7.60862 -11.82949,-10.16336 -4.83178,-2.55473 -10.57985,-3.83208 -17.24438,-3.83208 -4.77625,0 -9.44135,0.99966 -13.99545,2.99902 -4.55409,1.99936 -8.55275,4.91505 -11.99609,8.74715 -3.44334,3.83211 -6.22019,8.52498 -8.33062,14.07875 -2.11044,5.55378 -3.16564,11.88499 -3.16564,18.99382 0,6.3313 0.72198,12.24599 2.16596,17.74422 1.44398,5.49824 3.66546,10.27442 6.6645,14.32867 2.99904,4.05426 6.85885,7.1921 11.57956,9.41361 4.72071,2.22151 10.41325,3.27671 17.07778,3.16563 9.77464,0 17.99411,-2.74908 24.65864,-8.24731 6.66453,-5.49824 10.60765,-13.24564 11.82948,-23.24244 h -3.33225 c -1.44398,9.44142 -5.13719,16.52238 -11.07973,21.24309 -5.94254,4.72071 -13.41225,7.08103 -22.40937,7.08103 -6.10915,0 -11.27409,-1.0552 -15.49495,-3.16564 -4.22087,-2.11043 -7.66416,-4.99836 -10.32998,-8.66385 -2.66581,-3.66549 -4.63737,-7.9696 -5.91474,-12.91246 -1.27737,-4.94286 -1.97158,-10.30217 -2.08265,-16.0781 z m 68.31109,-3.33225 h -68.31109 c 0.33322,-5.99808 1.44396,-11.38516 3.33225,-16.1614 1.88828,-4.77625 4.35967,-8.85821 7.41425,-12.24602 3.05458,-3.3878 6.60894,-5.97027 10.6632,-7.74747 4.05425,-1.77721 8.4139,-2.6658 13.07907,-2.6658 5.55378,0 10.44103,1.02743 14.66189,3.08233 4.22087,2.05489 7.74747,4.85951 10.57989,8.41392 2.83243,3.55442 4.9706,7.69192 6.41458,12.41263 1.44398,4.72071 2.16596,9.69126 2.16596,14.91181 z m 72.47641,-14.8285 h 3.33225 c 0,-9.5525 -2.77685,-16.49461 -8.33062,-20.82656 -5.55378,-4.33194 -13.1068,-6.49788 -22.65929,-6.49788 -5.33163,0 -9.83012,0.66644 -13.49561,1.99935 -3.66549,1.3329 -6.66448,3.05455 -8.99707,5.16498 -2.33259,2.11044 -3.99869,4.44299 -4.99837,6.99772 -0.99968,2.55474 -1.49951,4.99836 -1.49951,7.33095 0,4.66517 0.83305,8.38615 2.49918,11.16303 1.66613,2.77689 4.27637,4.94283 7.83079,6.49789 2.44366,1.11075 5.2205,2.11042 8.33062,2.99902 3.11011,0.88861 6.72001,1.83273 10.82981,2.83241 3.66549,0.88861 7.27539,1.7772 10.8298,2.6658 3.55442,0.88861 6.69226,2.08265 9.41361,3.58217 2.72135,1.49952 4.94282,3.41554 6.66449,5.74813 1.72167,2.33258 2.5825,5.38711 2.5825,9.16368 0,3.66549 -0.86083,6.77556 -2.5825,9.3303 -1.72167,2.55474 -3.91538,4.63737 -6.58119,6.24796 -2.66581,1.6106 -5.63704,2.77687 -8.91376,3.49887 -3.27673,0.72199 -6.4701,1.08298 -9.58022,1.08298 -10.10787,0 -17.85527,-2.24925 -23.24243,-6.74781 -5.38716,-4.49856 -8.0807,-11.57951 -8.0807,-21.24308 h -3.33225 c 0,10.77432 2.91569,18.66057 8.74715,23.65896 5.83146,4.9984 14.46745,7.49756 25.90823,7.49756 3.66549,0 7.3587,-0.41653 11.07973,-1.24959 3.72103,-0.83307 7.05324,-2.19372 9.99674,-4.08201 2.94351,-1.88828 5.33159,-4.3319 7.16434,-7.33094 1.83275,-2.99904 2.7491,-6.66448 2.7491,-10.99642 0,-4.1098 -0.80528,-7.44201 -2.41588,-9.99675 -1.61059,-2.55474 -3.72099,-4.66514 -6.33127,-6.33127 -2.61027,-1.66613 -5.55373,-2.97125 -8.83046,-3.91539 -3.27672,-0.94414 -6.58117,-1.8605 -9.91344,-2.74911 -4.66517,-1.22183 -8.74713,-2.27703 -12.24601,-3.16563 -3.49888,-0.88861 -6.74779,-1.94381 -9.74683,-3.16564 -2.88796,-1.22183 -5.19274,-2.97124 -6.91441,-5.24829 -1.72167,-2.27705 -2.5825,-5.52596 -2.5825,-9.74683 0,-0.77753 0.22215,-2.16595 0.66645,-4.16531 0.44431,-1.99936 1.49951,-4.02646 3.16564,-6.08135 1.66613,-2.0549 4.22083,-3.88762 7.66417,-5.49821 3.44334,-1.6106 8.16398,-2.41588 14.16206,-2.41588 4.10979,0 7.85853,0.44429 11.24634,1.33289 3.3878,0.88861 6.30349,2.3048 8.74715,4.24862 2.44366,1.94382 4.33192,4.41522 5.66482,7.41425 1.33291,2.99904 1.99935,6.66448 1.99935,10.99643 z m 77.14156,0 h 3.33225 c 0,-9.5525 -2.77685,-16.49461 -8.33063,-20.82656 -5.55377,-4.33194 -13.10679,-6.49788 -22.65929,-6.49788 -5.33162,0 -9.83011,0.66644 -13.4956,1.99935 -3.66549,1.3329 -6.66449,3.05455 -8.99707,5.16498 -2.33259,2.11044 -3.9987,4.44299 -4.99838,6.99772 -0.99968,2.55474 -1.49951,4.99836 -1.49951,7.33095 0,4.66517 0.83305,8.38615 2.49919,11.16303 1.66613,2.77689 4.27637,4.94283 7.83078,6.49789 2.44366,1.11075 5.22051,2.11042 8.33062,2.99902 3.11012,0.88861 6.72002,1.83273 10.82981,2.83241 3.66549,0.88861 7.27539,1.7772 10.82981,2.6658 3.55442,0.88861 6.69225,2.08265 9.4136,3.58217 2.72135,1.49952 4.94283,3.41554 6.6645,5.74813 1.72167,2.33258 2.58249,5.38711 2.58249,9.16368 0,3.66549 -0.86082,6.77556 -2.58249,9.3303 -1.72167,2.55474 -3.91538,4.63737 -6.58119,6.24796 -2.66581,1.6106 -5.63704,2.77687 -8.91377,3.49887 -3.27672,0.72199 -6.4701,1.08298 -9.58021,1.08298 -10.10787,0 -17.85527,-2.24925 -23.24244,-6.74781 -5.38716,-4.49856 -8.0807,-11.57951 -8.0807,-21.24308 h -3.33225 c 0,10.77432 2.91569,18.66057 8.74715,23.65896 5.83147,4.9984 14.46746,7.49756 25.90824,7.49756 3.66549,0 7.35869,-0.41653 11.07972,-1.24959 3.72103,-0.83307 7.05325,-2.19372 9.99675,-4.08201 2.9435,-1.88828 5.33159,-4.3319 7.16433,-7.33094 1.83275,-2.99904 2.74911,-6.66448 2.74911,-10.99642 0,-4.1098 -0.80529,-7.44201 -2.41588,-9.99675 -1.6106,-2.55474 -3.721,-4.66514 -6.33127,-6.33127 -2.61028,-1.66613 -5.55373,-2.97125 -8.83046,-3.91539 -3.27673,-0.94414 -6.58118,-1.8605 -9.91344,-2.74911 -4.66517,-1.22183 -8.74714,-2.27703 -12.24601,-3.16563 -3.49888,-0.88861 -6.74779,-1.94381 -9.74683,-3.16564 -2.88797,-1.22183 -5.19275,-2.97124 -6.91442,-5.24829 -1.72167,-2.27705 -2.58249,-5.52596 -2.58249,-9.74683 0,-0.77753 0.22215,-2.16595 0.66645,-4.16531 0.4443,-1.99936 1.4995,-4.02646 3.16564,-6.08135 1.66613,-2.0549 4.22083,-3.88762 7.66417,-5.49821 3.44334,-1.6106 8.16398,-2.41588 14.16205,-2.41588 4.1098,0 7.85854,0.44429 11.24634,1.33289 3.38781,0.88861 6.30349,2.3048 8.74716,4.24862 2.44366,1.94382 4.33191,4.41522 5.66482,7.41426 1.3329,2.99903 1.99935,6.66447 1.99935,10.99642 z"
     fill="#222222"
     id="path1" /></svg>
